<svg width="153" height="122" viewBox="0 0 153 122" fill="none" xmlns="http://www.w3.org/2000/svg">
<g clip-path="url(#clip0_47_837)">
<path d="M19.125 24.7812C19.125 19.5152 14.8458 15.25 9.5625 15.25C4.27922 15.25 0 19.5152 0 24.7812V38.125V53.375V77.5605C0 83.6367 2.41453 89.4508 6.71766 93.7398L30.6 117.544C33.4688 120.404 37.3655 122 41.4295 122H57.375C63.7102 122 68.85 116.877 68.85 110.562V91.7621C68.85 84.6852 66.0291 77.8941 61.0087 72.8902L54.9605 66.8617L51.3267 63.2398L43.6767 55.6148C40.6884 52.6363 35.8355 52.6363 32.8472 55.6148C29.8589 58.5934 29.8589 63.4305 32.8472 66.409L40.4972 74.034L44.1309 77.6559C46.7606 80.277 46.3303 84.6137 43.2464 86.6629C40.9275 88.2117 37.8197 87.902 35.8355 85.9242L23.5955 73.748C20.7267 70.8887 19.125 67.0047 19.125 62.9539V53.375V34.3125V24.7812ZM133.875 24.7812V34.3125V53.375V62.9539C133.875 67.0047 132.273 70.8887 129.405 73.748L117.188 85.9242C115.204 87.902 112.096 88.2117 109.777 86.6629C106.694 84.6137 106.263 80.2531 108.893 77.6559L112.527 74.034L120.177 66.409C123.165 63.4305 123.165 58.5934 120.177 55.6148C117.188 52.6363 112.335 52.6363 109.347 55.6148L101.697 63.2398L98.0634 66.8617L92.0152 72.8902C86.9948 77.8941 84.1739 84.6852 84.1739 91.7621V110.562C84.1739 116.877 89.3137 122 95.6489 122H111.594C115.658 122 119.555 120.404 122.424 117.544L146.306 93.7398C150.609 89.4508 153.024 83.6367 153.024 77.5605V53.375V38.125V24.7812C153.024 19.5152 148.745 15.25 143.461 15.25C138.178 15.25 133.899 19.5152 133.899 24.7812H133.875Z" fill="#003185"/>
<g clip-path="url(#clip1_47_837)">
<path d="M75.413 32.5237L75.2139 64.9801C75.2068 66.1744 76.1667 67.1458 77.3547 67.1465C78.5427 67.1472 79.5204 66.1937 79.5211 65.0057L79.5776 55.5019C80.3409 55.3285 81.0731 55.0597 81.7616 54.6699C85.395 52.6204 89.9565 48.3274 91.454 41.1511C91.7221 39.863 90.2206 39.1616 89.2876 40.0836L88.2587 41.1003C87.9328 41.4224 87.4119 41.4193 87.0898 41.0934C86.8309 40.8314 86.7824 40.4372 86.9495 40.1205L91.3427 32.0783C91.4968 31.7997 91.5559 31.476 91.4943 31.158C91.3713 30.4711 91.2293 29.7905 91.0618 29.1098C90.8075 28.06 89.5134 27.7347 88.7466 28.4925L86.2798 30.9301C85.9539 31.2521 85.433 31.2491 85.1109 30.9231C84.852 30.6611 84.8035 30.2669 84.9706 29.9503L88.606 23.2885C88.8115 22.9085 88.8396 22.4513 88.6705 22.05C85.8949 15.5217 81.8885 9.76748 79.0372 6.35803C78.4632 5.67484 77.6077 5.29493 76.7184 5.28965C75.829 5.28437 74.9691 5.65409 74.387 6.3304C69.4611 12.057 61.1601 24.4914 61.0913 36.0662C61.0309 46.2434 66.714 52.0711 71.0635 54.6064C71.6966 54.9786 72.4366 54.462 72.441 53.7251L72.5714 32.8308C72.5761 32.043 73.2279 31.3989 74.0157 31.4036C74.7018 31.4077 75.2643 31.8875 75.4067 32.53L75.413 32.5237Z" fill="#003185"/>
</g>
</g>
<defs>
<clipPath id="clip0_47_837">
<rect width="153" height="122" fill="white"/>
</clipPath>
<clipPath id="clip1_47_837">
<rect width="46" height="46" fill="white" transform="translate(44 36.3331) rotate(-44.6597)"/>
</clipPath>
</defs>
</svg>
